<mxfile host="app.diagrams.net" modified="2024-07-22T14:23:45.324Z" agent="Mozilla/5.0 (Windows NT 10.0; Win64; x64; rv:129.0) Gecko/20100101 Firefox/129.0" version="24.6.4" etag="bda1_mSPax62hOH3o-h2" type="github">
  <diagram name="Page-1" id="DdUb9MgBPyC4JelleSlF">
    <mxGraphModel>
      <root>
        <mxCell id="0" />
        <mxCell id="1" parent="0" />
      </root>
    </mxGraphModel>
  </diagram>
</mxfile>
